<mxfile host="app.diagrams.net" modified="2020-12-23T07:17:48.520Z" agent="5.0 (Windows NT 6.3; Win64; x64) AppleWebKit/537.36 (KHTML, like Gecko) Chrome/87.0.4280.88 Safari/537.36 Edg/87.0.664.66" etag="3Rl76hF-AWG45EfNnpvt" version="14.1.1" type="github">
  <diagram id="C5RBs43oDa-KdzZeNtuy" name="Page-1">
    <mxGraphModel dx="1240" dy="689" grid="1" gridSize="10" guides="1" tooltips="1" connect="1" arrows="1" fold="1" page="1" pageScale="1" pageWidth="827" pageHeight="1169" math="0" shadow="0">
      <root>
        <mxCell id="WIyWlLk6GJQsqaUBKTNV-0" />
        <mxCell id="WIyWlLk6GJQsqaUBKTNV-1" parent="WIyWlLk6GJQsqaUBKTNV-0" />
        <mxCell id="WIyWlLk6GJQsqaUBKTNV-2" value="" style="rounded=0;html=1;jettySize=auto;orthogonalLoop=1;fontSize=11;endArrow=block;endFill=0;endSize=8;strokeWidth=1;shadow=0;labelBackgroundColor=none;edgeStyle=orthogonalEdgeStyle;" parent="WIyWlLk6GJQsqaUBKTNV-1" edge="1">
          <mxGeometry relative="1" as="geometry">
            <mxPoint x="200" y="120" as="sourcePoint" />
            <mxPoint x="200" y="170" as="targetPoint" />
          </mxGeometry>
        </mxCell>
        <mxCell id="WIyWlLk6GJQsqaUBKTNV-4" value="" style="rounded=0;html=1;jettySize=auto;orthogonalLoop=1;fontSize=11;endArrow=block;endFill=0;endSize=8;strokeWidth=1;shadow=0;labelBackgroundColor=none;edgeStyle=orthogonalEdgeStyle;exitX=0.5;exitY=1;exitDx=0;exitDy=0;" parent="WIyWlLk6GJQsqaUBKTNV-1" edge="1">
          <mxGeometry y="20" relative="1" as="geometry">
            <mxPoint as="offset" />
            <mxPoint x="200" y="230" as="sourcePoint" />
            <mxPoint x="200" y="280" as="targetPoint" />
          </mxGeometry>
        </mxCell>
        <mxCell id="MN40Rwi8LiVU0ITtH0rx-9" value="Yes" style="edgeStyle=orthogonalEdgeStyle;rounded=0;orthogonalLoop=1;jettySize=auto;html=1;exitX=0;exitY=0.5;exitDx=0;exitDy=0;entryX=1;entryY=0.5;entryDx=0;entryDy=0;" edge="1" parent="WIyWlLk6GJQsqaUBKTNV-1">
          <mxGeometry relative="1" as="geometry">
            <mxPoint x="80.00000000001" y="320" as="targetPoint" />
            <mxPoint x="150" y="320" as="sourcePoint" />
          </mxGeometry>
        </mxCell>
        <mxCell id="MN40Rwi8LiVU0ITtH0rx-0" value="START" style="ellipse;whiteSpace=wrap;html=1;" vertex="1" parent="WIyWlLk6GJQsqaUBKTNV-1">
          <mxGeometry x="140" y="70" width="120" height="50" as="geometry" />
        </mxCell>
        <mxCell id="MN40Rwi8LiVU0ITtH0rx-1" value="END" style="ellipse;whiteSpace=wrap;html=1;" vertex="1" parent="WIyWlLk6GJQsqaUBKTNV-1">
          <mxGeometry x="360" y="1070" width="120" height="50" as="geometry" />
        </mxCell>
        <mxCell id="MN40Rwi8LiVU0ITtH0rx-22" style="edgeStyle=orthogonalEdgeStyle;rounded=0;orthogonalLoop=1;jettySize=auto;html=1;exitX=0;exitY=0.5;exitDx=0;exitDy=0;entryX=1;entryY=0.5;entryDx=0;entryDy=0;" edge="1" parent="WIyWlLk6GJQsqaUBKTNV-1" source="MN40Rwi8LiVU0ITtH0rx-3" target="MN40Rwi8LiVU0ITtH0rx-17">
          <mxGeometry relative="1" as="geometry" />
        </mxCell>
        <mxCell id="MN40Rwi8LiVU0ITtH0rx-3" value="A" style="ellipse;whiteSpace=wrap;html=1;aspect=fixed;" vertex="1" parent="WIyWlLk6GJQsqaUBKTNV-1">
          <mxGeometry x="340" y="180" width="40" height="40" as="geometry" />
        </mxCell>
        <mxCell id="MN40Rwi8LiVU0ITtH0rx-8" value="" style="endArrow=none;html=1;exitX=0.5;exitY=0;exitDx=0;exitDy=0;" edge="1" parent="WIyWlLk6GJQsqaUBKTNV-1" source="MN40Rwi8LiVU0ITtH0rx-1">
          <mxGeometry width="50" height="50" relative="1" as="geometry">
            <mxPoint x="340" y="1050" as="sourcePoint" />
            <mxPoint x="420" y="970" as="targetPoint" />
          </mxGeometry>
        </mxCell>
        <mxCell id="MN40Rwi8LiVU0ITtH0rx-24" value="No" style="edgeStyle=orthogonalEdgeStyle;rounded=0;orthogonalLoop=1;jettySize=auto;html=1;exitX=0.5;exitY=1;exitDx=0;exitDy=0;exitPerimeter=0;entryX=0.5;entryY=0;entryDx=0;entryDy=0;entryPerimeter=0;" edge="1" parent="WIyWlLk6GJQsqaUBKTNV-1" source="MN40Rwi8LiVU0ITtH0rx-15" target="MN40Rwi8LiVU0ITtH0rx-16">
          <mxGeometry relative="1" as="geometry" />
        </mxCell>
        <mxCell id="MN40Rwi8LiVU0ITtH0rx-15" value="click PLAY" style="strokeWidth=2;html=1;shape=mxgraph.flowchart.decision;whiteSpace=wrap;" vertex="1" parent="WIyWlLk6GJQsqaUBKTNV-1">
          <mxGeometry x="150" y="280" width="100" height="80" as="geometry" />
        </mxCell>
        <mxCell id="MN40Rwi8LiVU0ITtH0rx-28" value="Yes" style="edgeStyle=orthogonalEdgeStyle;rounded=0;orthogonalLoop=1;jettySize=auto;html=1;" edge="1" parent="WIyWlLk6GJQsqaUBKTNV-1" source="MN40Rwi8LiVU0ITtH0rx-16" target="MN40Rwi8LiVU0ITtH0rx-26">
          <mxGeometry relative="1" as="geometry" />
        </mxCell>
        <mxCell id="MN40Rwi8LiVU0ITtH0rx-29" value="No" style="edgeStyle=orthogonalEdgeStyle;rounded=0;orthogonalLoop=1;jettySize=auto;html=1;exitX=0.5;exitY=1;exitDx=0;exitDy=0;exitPerimeter=0;" edge="1" parent="WIyWlLk6GJQsqaUBKTNV-1" source="MN40Rwi8LiVU0ITtH0rx-16">
          <mxGeometry relative="1" as="geometry">
            <mxPoint x="200" y="580" as="targetPoint" />
          </mxGeometry>
        </mxCell>
        <mxCell id="MN40Rwi8LiVU0ITtH0rx-16" value="click SETTINGS" style="strokeWidth=2;html=1;shape=mxgraph.flowchart.decision;whiteSpace=wrap;" vertex="1" parent="WIyWlLk6GJQsqaUBKTNV-1">
          <mxGeometry x="130" y="420" width="140" height="100" as="geometry" />
        </mxCell>
        <mxCell id="MN40Rwi8LiVU0ITtH0rx-17" value="DISPLAY GUI&lt;br&gt;&quot;Main Menu&quot;" style="shape=parallelogram;html=1;strokeWidth=2;perimeter=parallelogramPerimeter;whiteSpace=wrap;rounded=1;arcSize=12;size=0.23;" vertex="1" parent="WIyWlLk6GJQsqaUBKTNV-1">
          <mxGeometry x="110" y="170" width="190" height="60" as="geometry" />
        </mxCell>
        <mxCell id="MN40Rwi8LiVU0ITtH0rx-21" value="B" style="ellipse;whiteSpace=wrap;html=1;aspect=fixed;" vertex="1" parent="WIyWlLk6GJQsqaUBKTNV-1">
          <mxGeometry x="40" y="300" width="40" height="40" as="geometry" />
        </mxCell>
        <mxCell id="MN40Rwi8LiVU0ITtH0rx-26" value="C" style="ellipse;whiteSpace=wrap;html=1;aspect=fixed;" vertex="1" parent="WIyWlLk6GJQsqaUBKTNV-1">
          <mxGeometry x="10" y="450" width="40" height="40" as="geometry" />
        </mxCell>
        <mxCell id="MN40Rwi8LiVU0ITtH0rx-31" value="Yes" style="edgeStyle=orthogonalEdgeStyle;rounded=0;orthogonalLoop=1;jettySize=auto;html=1;exitX=0;exitY=0.5;exitDx=0;exitDy=0;exitPerimeter=0;" edge="1" parent="WIyWlLk6GJQsqaUBKTNV-1" source="MN40Rwi8LiVU0ITtH0rx-30">
          <mxGeometry relative="1" as="geometry">
            <mxPoint x="80" y="624.7647058823529" as="targetPoint" />
          </mxGeometry>
        </mxCell>
        <mxCell id="MN40Rwi8LiVU0ITtH0rx-36" value="No" style="edgeStyle=orthogonalEdgeStyle;rounded=0;orthogonalLoop=1;jettySize=auto;html=1;exitX=0.5;exitY=1;exitDx=0;exitDy=0;exitPerimeter=0;" edge="1" parent="WIyWlLk6GJQsqaUBKTNV-1" source="MN40Rwi8LiVU0ITtH0rx-30">
          <mxGeometry relative="1" as="geometry">
            <mxPoint x="200" y="720" as="targetPoint" />
          </mxGeometry>
        </mxCell>
        <mxCell id="MN40Rwi8LiVU0ITtH0rx-30" value="click QUIT" style="strokeWidth=2;html=1;shape=mxgraph.flowchart.decision;whiteSpace=wrap;" vertex="1" parent="WIyWlLk6GJQsqaUBKTNV-1">
          <mxGeometry x="150" y="585" width="100" height="80" as="geometry" />
        </mxCell>
        <mxCell id="MN40Rwi8LiVU0ITtH0rx-33" value="D" style="ellipse;whiteSpace=wrap;html=1;aspect=fixed;" vertex="1" parent="WIyWlLk6GJQsqaUBKTNV-1">
          <mxGeometry x="40" y="605" width="40" height="40" as="geometry" />
        </mxCell>
        <mxCell id="MN40Rwi8LiVU0ITtH0rx-35" value="A" style="ellipse;whiteSpace=wrap;html=1;aspect=fixed;" vertex="1" parent="WIyWlLk6GJQsqaUBKTNV-1">
          <mxGeometry x="180" y="720" width="40" height="40" as="geometry" />
        </mxCell>
        <mxCell id="MN40Rwi8LiVU0ITtH0rx-38" style="edgeStyle=orthogonalEdgeStyle;rounded=0;orthogonalLoop=1;jettySize=auto;html=1;exitX=1;exitY=0.5;exitDx=0;exitDy=0;" edge="1" parent="WIyWlLk6GJQsqaUBKTNV-1" source="MN40Rwi8LiVU0ITtH0rx-37">
          <mxGeometry relative="1" as="geometry">
            <mxPoint x="600" y="200.05882352941182" as="targetPoint" />
          </mxGeometry>
        </mxCell>
        <mxCell id="MN40Rwi8LiVU0ITtH0rx-37" value="B" style="ellipse;whiteSpace=wrap;html=1;aspect=fixed;" vertex="1" parent="WIyWlLk6GJQsqaUBKTNV-1">
          <mxGeometry x="500" y="180" width="40" height="40" as="geometry" />
        </mxCell>
        <mxCell id="MN40Rwi8LiVU0ITtH0rx-42" style="edgeStyle=orthogonalEdgeStyle;rounded=0;orthogonalLoop=1;jettySize=auto;html=1;exitX=0.5;exitY=1;exitDx=0;exitDy=0;" edge="1" parent="WIyWlLk6GJQsqaUBKTNV-1" source="MN40Rwi8LiVU0ITtH0rx-39">
          <mxGeometry relative="1" as="geometry">
            <mxPoint x="675" y="279.9999999999999" as="targetPoint" />
          </mxGeometry>
        </mxCell>
        <mxCell id="MN40Rwi8LiVU0ITtH0rx-39" value="DISPLAY GUI&lt;br&gt;&quot;Main Game&quot;" style="shape=parallelogram;html=1;strokeWidth=2;perimeter=parallelogramPerimeter;whiteSpace=wrap;rounded=1;arcSize=12;size=0.23;" vertex="1" parent="WIyWlLk6GJQsqaUBKTNV-1">
          <mxGeometry x="580" y="170" width="190" height="60" as="geometry" />
        </mxCell>
        <mxCell id="MN40Rwi8LiVU0ITtH0rx-43" value="CAR CRASHED?" style="strokeWidth=2;html=1;shape=mxgraph.flowchart.decision;whiteSpace=wrap;" vertex="1" parent="WIyWlLk6GJQsqaUBKTNV-1">
          <mxGeometry x="612.5" y="420" width="125" height="90" as="geometry" />
        </mxCell>
        <mxCell id="MN40Rwi8LiVU0ITtH0rx-48" value="No" style="edgeStyle=orthogonalEdgeStyle;rounded=0;orthogonalLoop=1;jettySize=auto;html=1;exitX=0.5;exitY=1;exitDx=0;exitDy=0;exitPerimeter=0;" edge="1" parent="WIyWlLk6GJQsqaUBKTNV-1" source="MN40Rwi8LiVU0ITtH0rx-44" target="MN40Rwi8LiVU0ITtH0rx-43">
          <mxGeometry relative="1" as="geometry" />
        </mxCell>
        <mxCell id="MN40Rwi8LiVU0ITtH0rx-59" value="Yes" style="edgeStyle=orthogonalEdgeStyle;rounded=0;orthogonalLoop=1;jettySize=auto;html=1;exitX=0;exitY=0.5;exitDx=0;exitDy=0;exitPerimeter=0;entryX=1;entryY=0.5;entryDx=0;entryDy=0;" edge="1" parent="WIyWlLk6GJQsqaUBKTNV-1" source="MN40Rwi8LiVU0ITtH0rx-44" target="MN40Rwi8LiVU0ITtH0rx-46">
          <mxGeometry relative="1" as="geometry" />
        </mxCell>
        <mxCell id="MN40Rwi8LiVU0ITtH0rx-44" value="click PAUSE" style="strokeWidth=2;html=1;shape=mxgraph.flowchart.decision;whiteSpace=wrap;" vertex="1" parent="WIyWlLk6GJQsqaUBKTNV-1">
          <mxGeometry x="625" y="280" width="100" height="80" as="geometry" />
        </mxCell>
        <mxCell id="MN40Rwi8LiVU0ITtH0rx-46" value="E" style="ellipse;whiteSpace=wrap;html=1;aspect=fixed;" vertex="1" parent="WIyWlLk6GJQsqaUBKTNV-1">
          <mxGeometry x="500" y="300" width="40" height="40" as="geometry" />
        </mxCell>
        <mxCell id="MN40Rwi8LiVU0ITtH0rx-49" style="edgeStyle=orthogonalEdgeStyle;rounded=0;orthogonalLoop=1;jettySize=auto;html=1;exitX=1;exitY=0.5;exitDx=0;exitDy=0;" edge="1" parent="WIyWlLk6GJQsqaUBKTNV-1" source="MN40Rwi8LiVU0ITtH0rx-50">
          <mxGeometry relative="1" as="geometry">
            <mxPoint x="1020" y="200.05882352941182" as="targetPoint" />
          </mxGeometry>
        </mxCell>
        <mxCell id="MN40Rwi8LiVU0ITtH0rx-50" value="E" style="ellipse;whiteSpace=wrap;html=1;aspect=fixed;" vertex="1" parent="WIyWlLk6GJQsqaUBKTNV-1">
          <mxGeometry x="920" y="180" width="40" height="40" as="geometry" />
        </mxCell>
        <mxCell id="MN40Rwi8LiVU0ITtH0rx-52" style="edgeStyle=orthogonalEdgeStyle;rounded=0;orthogonalLoop=1;jettySize=auto;html=1;exitX=0.5;exitY=1;exitDx=0;exitDy=0;" edge="1" parent="WIyWlLk6GJQsqaUBKTNV-1" source="MN40Rwi8LiVU0ITtH0rx-51">
          <mxGeometry relative="1" as="geometry">
            <mxPoint x="1095" y="279.9999999999999" as="targetPoint" />
          </mxGeometry>
        </mxCell>
        <mxCell id="MN40Rwi8LiVU0ITtH0rx-51" value="DISPLAY GUI&lt;br&gt;&quot;Pause&quot;" style="shape=parallelogram;html=1;strokeWidth=2;perimeter=parallelogramPerimeter;whiteSpace=wrap;rounded=1;arcSize=12;size=0.23;" vertex="1" parent="WIyWlLk6GJQsqaUBKTNV-1">
          <mxGeometry x="1000" y="170" width="190" height="60" as="geometry" />
        </mxCell>
        <mxCell id="MN40Rwi8LiVU0ITtH0rx-61" value="Yes" style="edgeStyle=orthogonalEdgeStyle;rounded=0;orthogonalLoop=1;jettySize=auto;html=1;exitX=0;exitY=0.5;exitDx=0;exitDy=0;exitPerimeter=0;" edge="1" parent="WIyWlLk6GJQsqaUBKTNV-1" source="MN40Rwi8LiVU0ITtH0rx-54">
          <mxGeometry relative="1" as="geometry">
            <mxPoint x="960" y="480" as="targetPoint" />
          </mxGeometry>
        </mxCell>
        <mxCell id="MN40Rwi8LiVU0ITtH0rx-54" value="click MAIN MENU" style="strokeWidth=2;html=1;shape=mxgraph.flowchart.decision;whiteSpace=wrap;" vertex="1" parent="WIyWlLk6GJQsqaUBKTNV-1">
          <mxGeometry x="1025" y="430" width="140" height="100" as="geometry" />
        </mxCell>
        <mxCell id="MN40Rwi8LiVU0ITtH0rx-56" value="No" style="edgeStyle=orthogonalEdgeStyle;rounded=0;orthogonalLoop=1;jettySize=auto;html=1;exitX=0.5;exitY=1;exitDx=0;exitDy=0;exitPerimeter=0;entryX=0.5;entryY=0;entryDx=0;entryDy=0;entryPerimeter=0;" edge="1" parent="WIyWlLk6GJQsqaUBKTNV-1" source="MN40Rwi8LiVU0ITtH0rx-55" target="MN40Rwi8LiVU0ITtH0rx-54">
          <mxGeometry relative="1" as="geometry" />
        </mxCell>
        <mxCell id="MN40Rwi8LiVU0ITtH0rx-60" value="Yes" style="edgeStyle=orthogonalEdgeStyle;rounded=0;orthogonalLoop=1;jettySize=auto;html=1;exitX=0;exitY=0.5;exitDx=0;exitDy=0;exitPerimeter=0;" edge="1" parent="WIyWlLk6GJQsqaUBKTNV-1" source="MN40Rwi8LiVU0ITtH0rx-55">
          <mxGeometry relative="1" as="geometry">
            <mxPoint x="960" y="330" as="targetPoint" />
          </mxGeometry>
        </mxCell>
        <mxCell id="MN40Rwi8LiVU0ITtH0rx-55" value="click RESTART" style="strokeWidth=2;html=1;shape=mxgraph.flowchart.decision;whiteSpace=wrap;" vertex="1" parent="WIyWlLk6GJQsqaUBKTNV-1">
          <mxGeometry x="1025" y="280" width="140" height="100" as="geometry" />
        </mxCell>
        <mxCell id="MN40Rwi8LiVU0ITtH0rx-86" value="Yes" style="edgeStyle=orthogonalEdgeStyle;rounded=0;orthogonalLoop=1;jettySize=auto;html=1;exitX=0;exitY=0.5;exitDx=0;exitDy=0;exitPerimeter=0;entryX=1;entryY=0.5;entryDx=0;entryDy=0;entryPerimeter=0;" edge="1" parent="WIyWlLk6GJQsqaUBKTNV-1" source="MN40Rwi8LiVU0ITtH0rx-57" target="MN40Rwi8LiVU0ITtH0rx-44">
          <mxGeometry relative="1" as="geometry">
            <Array as="points">
              <mxPoint x="840" y="630" />
              <mxPoint x="840" y="320" />
            </Array>
          </mxGeometry>
        </mxCell>
        <mxCell id="MN40Rwi8LiVU0ITtH0rx-57" value="click CONTINUE" style="strokeWidth=2;html=1;shape=mxgraph.flowchart.decision;whiteSpace=wrap;" vertex="1" parent="WIyWlLk6GJQsqaUBKTNV-1">
          <mxGeometry x="1025" y="580" width="140" height="100" as="geometry" />
        </mxCell>
        <mxCell id="MN40Rwi8LiVU0ITtH0rx-58" value="No" style="edgeStyle=orthogonalEdgeStyle;rounded=0;orthogonalLoop=1;jettySize=auto;html=1;exitX=0.5;exitY=1;exitDx=0;exitDy=0;exitPerimeter=0;entryX=0.5;entryY=0;entryDx=0;entryDy=0;entryPerimeter=0;" edge="1" parent="WIyWlLk6GJQsqaUBKTNV-1" target="MN40Rwi8LiVU0ITtH0rx-57">
          <mxGeometry relative="1" as="geometry">
            <mxPoint x="1095" y="530" as="sourcePoint" />
          </mxGeometry>
        </mxCell>
        <mxCell id="MN40Rwi8LiVU0ITtH0rx-62" value="B" style="ellipse;whiteSpace=wrap;html=1;aspect=fixed;" vertex="1" parent="WIyWlLk6GJQsqaUBKTNV-1">
          <mxGeometry x="920" y="310" width="40" height="40" as="geometry" />
        </mxCell>
        <mxCell id="MN40Rwi8LiVU0ITtH0rx-63" value="A" style="ellipse;whiteSpace=wrap;html=1;aspect=fixed;" vertex="1" parent="WIyWlLk6GJQsqaUBKTNV-1">
          <mxGeometry x="920" y="460" width="40" height="40" as="geometry" />
        </mxCell>
        <mxCell id="MN40Rwi8LiVU0ITtH0rx-69" style="edgeStyle=orthogonalEdgeStyle;rounded=0;orthogonalLoop=1;jettySize=auto;html=1;exitX=1;exitY=0.5;exitDx=0;exitDy=0;" edge="1" parent="WIyWlLk6GJQsqaUBKTNV-1" source="MN40Rwi8LiVU0ITtH0rx-70">
          <mxGeometry relative="1" as="geometry">
            <mxPoint x="1410" y="200.0588235294117" as="targetPoint" />
          </mxGeometry>
        </mxCell>
        <mxCell id="MN40Rwi8LiVU0ITtH0rx-70" value="C" style="ellipse;whiteSpace=wrap;html=1;aspect=fixed;" vertex="1" parent="WIyWlLk6GJQsqaUBKTNV-1">
          <mxGeometry x="1310" y="180" width="40" height="40" as="geometry" />
        </mxCell>
        <mxCell id="MN40Rwi8LiVU0ITtH0rx-71" style="edgeStyle=orthogonalEdgeStyle;rounded=0;orthogonalLoop=1;jettySize=auto;html=1;exitX=0.5;exitY=1;exitDx=0;exitDy=0;" edge="1" parent="WIyWlLk6GJQsqaUBKTNV-1" source="MN40Rwi8LiVU0ITtH0rx-72">
          <mxGeometry relative="1" as="geometry">
            <mxPoint x="1485" y="280" as="targetPoint" />
          </mxGeometry>
        </mxCell>
        <mxCell id="MN40Rwi8LiVU0ITtH0rx-72" value="DISPLAY GUI&lt;br&gt;&quot;Settings&quot;" style="shape=parallelogram;html=1;strokeWidth=2;perimeter=parallelogramPerimeter;whiteSpace=wrap;rounded=1;arcSize=12;size=0.23;" vertex="1" parent="WIyWlLk6GJQsqaUBKTNV-1">
          <mxGeometry x="1390" y="170" width="190" height="60" as="geometry" />
        </mxCell>
        <mxCell id="MN40Rwi8LiVU0ITtH0rx-73" value="No" style="edgeStyle=orthogonalEdgeStyle;rounded=0;orthogonalLoop=1;jettySize=auto;html=1;exitX=0.5;exitY=1;exitDx=0;exitDy=0;exitPerimeter=0;" edge="1" parent="WIyWlLk6GJQsqaUBKTNV-1">
          <mxGeometry relative="1" as="geometry">
            <mxPoint x="1095" y="735" as="targetPoint" />
            <mxPoint x="1095" y="680" as="sourcePoint" />
          </mxGeometry>
        </mxCell>
        <mxCell id="MN40Rwi8LiVU0ITtH0rx-74" value="E" style="ellipse;whiteSpace=wrap;html=1;aspect=fixed;" vertex="1" parent="WIyWlLk6GJQsqaUBKTNV-1">
          <mxGeometry x="1075" y="735" width="40" height="40" as="geometry" />
        </mxCell>
        <mxCell id="MN40Rwi8LiVU0ITtH0rx-76" value="Yes" style="edgeStyle=orthogonalEdgeStyle;rounded=0;orthogonalLoop=1;jettySize=auto;html=1;exitX=0;exitY=0.5;exitDx=0;exitDy=0;exitPerimeter=0;" edge="1" parent="WIyWlLk6GJQsqaUBKTNV-1" source="MN40Rwi8LiVU0ITtH0rx-75">
          <mxGeometry relative="1" as="geometry">
            <mxPoint x="1350" y="330" as="targetPoint" />
          </mxGeometry>
        </mxCell>
        <mxCell id="MN40Rwi8LiVU0ITtH0rx-79" value="No" style="edgeStyle=orthogonalEdgeStyle;rounded=0;orthogonalLoop=1;jettySize=auto;html=1;exitX=0.5;exitY=1;exitDx=0;exitDy=0;exitPerimeter=0;" edge="1" parent="WIyWlLk6GJQsqaUBKTNV-1" source="MN40Rwi8LiVU0ITtH0rx-75" target="MN40Rwi8LiVU0ITtH0rx-78">
          <mxGeometry relative="1" as="geometry" />
        </mxCell>
        <mxCell id="MN40Rwi8LiVU0ITtH0rx-75" value="click HOW TO PLAY" style="strokeWidth=2;html=1;shape=mxgraph.flowchart.decision;whiteSpace=wrap;" vertex="1" parent="WIyWlLk6GJQsqaUBKTNV-1">
          <mxGeometry x="1415" y="280" width="140" height="100" as="geometry" />
        </mxCell>
        <mxCell id="MN40Rwi8LiVU0ITtH0rx-77" value="F" style="ellipse;whiteSpace=wrap;html=1;aspect=fixed;" vertex="1" parent="WIyWlLk6GJQsqaUBKTNV-1">
          <mxGeometry x="1310" y="310" width="40" height="40" as="geometry" />
        </mxCell>
        <mxCell id="MN40Rwi8LiVU0ITtH0rx-80" value="Yes" style="edgeStyle=orthogonalEdgeStyle;rounded=0;orthogonalLoop=1;jettySize=auto;html=1;exitX=0;exitY=0.5;exitDx=0;exitDy=0;exitPerimeter=0;" edge="1" parent="WIyWlLk6GJQsqaUBKTNV-1" source="MN40Rwi8LiVU0ITtH0rx-78">
          <mxGeometry relative="1" as="geometry">
            <mxPoint x="1350" y="480" as="targetPoint" />
          </mxGeometry>
        </mxCell>
        <mxCell id="MN40Rwi8LiVU0ITtH0rx-83" value="No" style="edgeStyle=orthogonalEdgeStyle;rounded=0;orthogonalLoop=1;jettySize=auto;html=1;exitX=0.5;exitY=1;exitDx=0;exitDy=0;exitPerimeter=0;" edge="1" parent="WIyWlLk6GJQsqaUBKTNV-1" source="MN40Rwi8LiVU0ITtH0rx-78" target="MN40Rwi8LiVU0ITtH0rx-82">
          <mxGeometry relative="1" as="geometry" />
        </mxCell>
        <mxCell id="MN40Rwi8LiVU0ITtH0rx-78" value="click MUSIC" style="strokeWidth=2;html=1;shape=mxgraph.flowchart.decision;whiteSpace=wrap;" vertex="1" parent="WIyWlLk6GJQsqaUBKTNV-1">
          <mxGeometry x="1415" y="430" width="140" height="100" as="geometry" />
        </mxCell>
        <mxCell id="MN40Rwi8LiVU0ITtH0rx-81" value="G" style="ellipse;whiteSpace=wrap;html=1;aspect=fixed;" vertex="1" parent="WIyWlLk6GJQsqaUBKTNV-1">
          <mxGeometry x="1310" y="460" width="40" height="40" as="geometry" />
        </mxCell>
        <mxCell id="MN40Rwi8LiVU0ITtH0rx-84" value="Yes" style="edgeStyle=orthogonalEdgeStyle;rounded=0;orthogonalLoop=1;jettySize=auto;html=1;exitX=0;exitY=0.5;exitDx=0;exitDy=0;exitPerimeter=0;" edge="1" parent="WIyWlLk6GJQsqaUBKTNV-1" source="MN40Rwi8LiVU0ITtH0rx-82">
          <mxGeometry relative="1" as="geometry">
            <mxPoint x="1350" y="630" as="targetPoint" />
          </mxGeometry>
        </mxCell>
        <mxCell id="MN40Rwi8LiVU0ITtH0rx-90" value="No" style="edgeStyle=orthogonalEdgeStyle;rounded=0;orthogonalLoop=1;jettySize=auto;html=1;exitX=0.5;exitY=1;exitDx=0;exitDy=0;exitPerimeter=0;" edge="1" parent="WIyWlLk6GJQsqaUBKTNV-1" source="MN40Rwi8LiVU0ITtH0rx-82" target="MN40Rwi8LiVU0ITtH0rx-88">
          <mxGeometry relative="1" as="geometry" />
        </mxCell>
        <mxCell id="MN40Rwi8LiVU0ITtH0rx-82" value="click BACK" style="strokeWidth=2;html=1;shape=mxgraph.flowchart.decision;whiteSpace=wrap;" vertex="1" parent="WIyWlLk6GJQsqaUBKTNV-1">
          <mxGeometry x="1415" y="580" width="140" height="100" as="geometry" />
        </mxCell>
        <mxCell id="MN40Rwi8LiVU0ITtH0rx-85" value="A" style="ellipse;whiteSpace=wrap;html=1;aspect=fixed;" vertex="1" parent="WIyWlLk6GJQsqaUBKTNV-1">
          <mxGeometry x="1310" y="610" width="40" height="40" as="geometry" />
        </mxCell>
        <mxCell id="MN40Rwi8LiVU0ITtH0rx-88" value="C" style="ellipse;whiteSpace=wrap;html=1;aspect=fixed;" vertex="1" parent="WIyWlLk6GJQsqaUBKTNV-1">
          <mxGeometry x="1465" y="735" width="40" height="40" as="geometry" />
        </mxCell>
      </root>
    </mxGraphModel>
  </diagram>
</mxfile>
